<?xml version="1.0" encoding="UTF-8"?>
<svg xmlns="http://www.w3.org/2000/svg" xmlns:xlink="http://www.w3.org/1999/xlink" width="120px" height="120px" viewBox="0 0 120 120" version="1.1">
<g id="surface1">
<path style=" stroke:none;fill-rule:nonzero;fill:rgb(30.196078%,13.72549%,86.27451%);fill-opacity:1;" d="M 48.640625 4.792969 C 34.648438 7.8125 22.523438 15.816406 14.183594 27.414062 C 11.117188 31.773438 7.378906 39.777344 5.894531 45.382812 C 4.695312 49.746094 4.601562 50.796875 4.601562 59.664062 C 4.601562 68.53125 4.695312 69.585938 5.894531 73.945312 C 7.378906 79.550781 11.117188 87.554688 14.183594 91.917969 C 21.757812 102.507812 33.308594 110.558594 45.816406 113.914062 C 50.222656 115.113281 51.230469 115.207031 60.144531 115.207031 C 69.007812 115.207031 70.0625 115.113281 74.425781 113.914062 C 80.03125 112.429688 88.035156 108.691406 92.394531 105.621094 C 102.988281 98.050781 111.039062 86.5 114.394531 73.992188 C 115.589844 69.585938 115.6875 68.578125 115.6875 59.664062 C 115.6875 50.75 115.589844 49.746094 114.394531 45.335938 C 111.039062 32.828125 102.988281 21.277344 92.394531 13.707031 C 87.988281 10.589844 79.984375 6.902344 74.425781 5.414062 C 67.859375 3.691406 55.160156 3.355469 48.640625 4.792969 Z M 60.144531 55.160156 L 82.1875 83.53125 L 82.332031 55.160156 L 82.429688 26.835938 L 85.78125 26.835938 L 85.78125 89.664062 L 84.25 89.519531 C 82.859375 89.378906 80.847656 86.980469 60.910156 61.726562 L 39.058594 34.121094 L 38.914062 61.867188 L 38.816406 89.617188 L 35.464844 89.617188 L 35.464844 26.835938 L 36.804688 26.835938 C 37.957031 26.835938 40.496094 29.902344 60.144531 55.160156 Z M 60.144531 55.160156 "/>
</g>
</svg>
